<svg xmlns="http://www.w3.org/2000/svg" width="226.542" height="186.131" viewBox="0 0 226.542 186.131">
  <g id="Cart" transform="translate(5.945 15.286)">
    <path id="Path_1" data-name="Path 1" d="M217.409,57.172a8.354,8.354,0,0,0-6.845-3.711H80.178a3.741,3.741,0,0,0,0,7.468H210.564a1.409,1.409,0,0,1,1.161.638,1.728,1.728,0,0,1,.22,1.448l-19.559,67.216a5.974,5.974,0,0,1-5.65,4.486H73.68a6.337,6.337,0,0,1-6.059-5.157L41.815,14.091a7.808,7.808,0,0,0-7.508-6.336L-.928-5.209A3.629,3.629,0,0,0-4.445-1.474,3.629,3.629,0,0,0-.928,2.26L34.308,15.223a.711.711,0,0,1,.663.587L60.78,131.282c1.432,6.422,6.739,10.9,12.9,10.9H186.736a13.029,13.029,0,0,0,12.368-9.748l19.559-67.214A9.6,9.6,0,0,0,217.409,57.172Z" transform="translate(0 -8.578)" stroke="#808080" fill="#808080" stroke-width="3"/>
    <path id="Path_3" data-name="Path 3" d="M121.485,30.517A3.516,3.516,0,0,0,117.969,27H30.012a3.517,3.517,0,0,0,0,7.034h87.956A3.516,3.516,0,0,0,121.485,30.517Z" transform="translate(85.168 57.338)" fill="#808080" stroke="#808080" stroke-width="3"/>
    <circle id="Ellipse_1" data-name="Ellipse 1" cx="14.5" fill="#808080" stroke="#808080" cy="14.5" r="14.5" transform="translate(151 141.844)"/>
    <circle id="Ellipse_2" data-name="Ellipse 2" fill="#808080" stroke="#808080" cx="14.5" cy="14.5" r="14.5" transform="translate(78 141.844)"/>
  </g>
</svg>
